<?xml version="1.0" encoding="UTF-8" standalone="no"?>
<!-- Created with Inkscape (http://www.inkscape.org/) -->

<svg
   width="400"
   height="400"
   viewBox="0 0 105.83333 105.83333"
   version="1.1"
   id="svg5"
   xml:space="preserve"
   sodipodi:docname="desenho.svg"
   inkscape:version="1.2 (dc2aedaf03, 2022-05-15)"
   xmlns:inkscape="http://www.inkscape.org/namespaces/inkscape"
   xmlns:sodipodi="http://sodipodi.sourceforge.net/DTD/sodipodi-0.dtd"
   xmlns="http://www.w3.org/2000/svg"
   xmlns:svg="http://www.w3.org/2000/svg"><sodipodi:namedview
     id="namedview7"
     pagecolor="#ffffff"
     bordercolor="#000000"
     borderopacity="0.25"
     inkscape:showpageshadow="2"
     inkscape:pageopacity="0.0"
     inkscape:pagecheckerboard="true"
     inkscape:deskcolor="#d1d1d1"
     inkscape:document-units="px"
     showgrid="false"
     inkscape:zoom="1.6234774"
     inkscape:cx="174.62516"
     inkscape:cy="207.88709"
     inkscape:window-width="1920"
     inkscape:window-height="991"
     inkscape:window-x="-9"
     inkscape:window-y="-9"
     inkscape:window-maximized="1"
     inkscape:current-layer="g4808" /><defs
     id="defs2"><linearGradient
       id="linearGradient4742"
       inkscape:swatch="solid"><stop
         style="stop-color:#ffffff;stop-opacity:1;"
         offset="0"
         id="stop4740" /></linearGradient></defs><g
     inkscape:label="Camada 1"
     inkscape:groupmode="layer"
     id="layer1"><path
       style="fill:#ffffff;fill-opacity:1;stroke:none;stroke-width:0.0504285"
       d="m 56.737987,6.6403227 c -7.942793,0.049214 -15.90156,-0.028243 -23.834189,0.1127378 -2.0681,0.9255463 -4.208137,2.2666659 -5.246282,4.3363225 -0.72124,0.993229 -0.772982,2.357881 -1.052408,3.54182 -0.228666,19.800131 -0.06495,39.603402 -0.06281,59.404709 0.08496,6.143372 -0.105599,12.300403 0.263835,18.434638 0.33383,2.306236 2.029613,4.186268 3.8789,5.499974 1.445086,0.824169 3.035944,1.392469 4.737455,1.177169 12.414041,0.008 24.831964,0.12922 37.243539,-0.13123 1.279102,-0.0884 2.410431,-0.892403 3.458943,-1.572284 1.795784,-1.40026 3.297219,-3.508121 3.102381,-5.870345 0.21485,-18.526981 0.07357,-37.05687 0.110498,-55.585008 -0.06598,-7.744183 0.120718,-15.497425 -0.19862,-23.235758 C 78.667927,10.921458 77.41684,9.2621914 75.846552,8.184513 74.156046,7.010523 72.104891,6.5485932 70.063281,6.6934043 65.621878,6.6300507 61.179738,6.6405391 56.737992,6.6403232 Z M 52.992742,20.443788 c 6.781477,0.01505 13.562954,0.03011 20.344433,0.04516 0,19.864646 0,39.729286 0,59.593931 -13.528102,0.0056 -27.056891,0.125946 -40.584592,-0.006 -0.17331,-19.871929 -0.07495,-39.789097 -0.102123,-59.678218 6.780763,0.01505 13.561522,0.03011 20.342282,0.04516 z m 0.07847,64.4943 c 2.959139,-0.144481 5.36428,3.089775 4.36802,5.848859 -0.520594,1.715618 -2.0497,3.064894 -3.890227,3.136984 -2.559783,0.450929 -5.248687,-1.812703 -5.010555,-4.452851 -0.290905,-2.391559 2.143128,-4.677593 4.532762,-4.532992 z"
       id="path3225" /><g
       id="g4808"><rect
         style="fill:#ffffff;fill-opacity:1;stroke:none;stroke-width:0.039185"
         id="rect4736"
         width="4.2488003"
         height="25.635698"
         x="-77.713913"
         y="-14.85922"
         transform="matrix(-0.73928147,-0.67339655,-0.64230969,0.76644521,0,0)" /><rect
         style="fill:#ffffff;fill-opacity:1;stroke:none;stroke-width:0.0303431"
         id="rect4738"
         width="4.2726159"
         height="15.286117"
         x="6.5049357"
         y="62.429089"
         transform="matrix(-0.64230969,0.76644521,0.73928147,0.67339655,0,0)" /></g></g></svg>
