<?xml version="1.0" encoding="UTF-8" standalone="no"?>
<svg
   width="24"
   height="24"
   viewBox="0 0 24 24"
   version="1.1"
   id="svg4"
   sodipodi:docname="download_arrow.svg"
   inkscape:version="1.2 (dc2aedaf03, 2022-05-15)"
   xmlns:inkscape="http://www.inkscape.org/namespaces/inkscape"
   xmlns:sodipodi="http://sodipodi.sourceforge.net/DTD/sodipodi-0.dtd"
   xmlns="http://www.w3.org/2000/svg"
   xmlns:svg="http://www.w3.org/2000/svg">
  <defs
     id="defs8" />
  <sodipodi:namedview
     id="namedview6"
     pagecolor="#ffffff"
     bordercolor="#000000"
     borderopacity="0.25"
     inkscape:showpageshadow="2"
     inkscape:pageopacity="0.0"
     inkscape:pagecheckerboard="0"
     inkscape:deskcolor="#d1d1d1"
     showgrid="false"
     inkscape:zoom="16"
     inkscape:cx="-2.15625"
     inkscape:cy="18.09375"
     inkscape:window-width="1920"
     inkscape:window-height="991"
     inkscape:window-x="-9"
     inkscape:window-y="-9"
     inkscape:window-maximized="1"
     inkscape:current-layer="svg4" />
  <path
     fill-rule="evenodd"
     d="m 12.99802,13.175576 3.244801,-3.2446636 c 0.39054,-0.3905243 0.612133,-3.25e-5 1.002674,0.3904916 0.390541,0.390525 0.80214,0.633198 0.411599,1.023722 L 12,17.00198 6.3429058,11.345126 C 5.952365,10.954602 6.327365,10.747218 6.7179058,10.356694 7.1084467,9.9661694 7.3666385,9.5403881 7.7571794,9.9309124 L 10.99802,13.171615 V 3.9751416 c 0,-0.5109415 0.49459,-0.3938914 1.046875,-0.3938914 0.552284,0 0.953125,-0.1170501 0.953125,0.3938914 z m -8.195435,4.131181 h 14.585359 c 0.552285,0 0.4375,0.46334 0.4375,1.015625 0,0.552285 0.114785,0.984375 -0.4375,0.984375 H 4.802585 c -0.5522848,0 -0.4530971,-0.442191 -0.4530971,-0.994476 0,-0.552285 -0.099188,-1.005524 0.4530971,-1.005524 z"
     id="path2"
     sodipodi:nodetypes="cssscssscssscsssssss"
     style="fill:#ffffff;fill-opacity:1" />
</svg>
